<svg width="20" height="20" viewBox="0 0 20 20" fill="none" xmlns="http://www.w3.org/2000/svg">
<path fill-rule="evenodd" clip-rule="evenodd" d="M15 9.99998C16.8409 9.99998 18.3333 8.50756 18.3333 6.66665C18.3333 4.8257 16.8409 3.33331 15 3.33331C13.4468 3.33331 12.1417 4.39562 11.7716 5.83331H2.49996C2.03973 5.83331 1.66663 6.20641 1.66663 6.66665C1.66663 7.12689 2.03973 7.49998 2.49996 7.49998H11.7716C12.1417 8.93765 13.4468 9.99998 15 9.99998ZM13.3333 6.66665C13.3333 7.58712 14.0795 8.33331 15 8.33331C15.9205 8.33331 16.6666 7.58712 16.6666 6.66665C16.6666 5.74617 15.9205 4.99998 15 4.99998C14.0795 4.99998 13.3333 5.74617 13.3333 6.66665ZM1.66663 13.3333C1.66663 11.4924 3.15901 9.99998 4.99996 9.99998C6.55316 9.99998 7.85824 11.0623 8.22828 12.5H17.5C17.9602 12.5 18.3333 12.8731 18.3333 13.3333C18.3333 13.7936 17.9602 14.1666 17.5 14.1666H8.22828C7.85824 15.6043 6.55316 16.6666 4.99996 16.6666C3.15901 16.6666 1.66663 15.1742 1.66663 13.3333ZM6.66663 13.3333C6.66663 12.4128 5.92043 11.6666 4.99996 11.6666C4.07948 11.6666 3.33329 12.4128 3.33329 13.3333C3.33329 14.2538 4.07948 15 4.99996 15C5.92043 15 6.66663 14.2538 6.66663 13.3333Z" fill="#BABABA"/>
</svg>
